<svg viewBox="384.7457 222.5 227.3552 171.3407" width="5000" height="3768.1280217034846" xmlns="http://www.w3.org/2000/svg" xmlns:xlink="http://www.w3.org/1999/xlink" preserveAspectRatio="none"><defs></defs><style>.aa6E2ijNPFncolors-0 {fill:#FCA311;fill-opacity:1;}.aD6z1nYkhcolor {fill:#14213D;fill-opacity:1;}.aJDPqonIIWcolor {fill:#14213D;fill-opacity:1;}.icon3-str {stroke:#FEB7C7;stroke-opacity:1;}</style><g opacity="1" transform="rotate(0 448.4233 222.5)">
<svg width="100" height="100" x="448.4233" y="222.5" version="1.1" preserveAspectRatio="none" viewBox="20 20 160 160">
  <g transform="matrix(1 0 0 1 0 0)" ><g><path d="M126.936 127.782c-11.442-1.765-20.259-11.594-20.259-23.524 0-5.577 4.107-15.039 8.712-23.918L93.202 61.725 59.458 90.033v44.758h67.478v-7.009z" data-color="1" class="aa6E2ijNPFncolors-0"></path><path d="M31.606 141.344C45.626 164.484 70.969 180 100 180c29.032 0 54.375-15.517 68.394-38.657H31.606z" data-color="1" class="aa6E2ijNPFncolors-0"></path><path d="M52.906 88.503c0-.969.429-1.888 1.171-2.512l37.019-31.055c.102-.085.227-.112.335-.182.18-.118.356-.221.551-.3.206-.084.41-.139.626-.179.191-.035.374-.059.567-.06.232-.002.45.025.675.072.185.038.358.084.535.154.217.085.412.197.609.33.101.066.218.09.312.169l23.244 19.503a312.185 312.185 0 0 1 9.257-15.571c1.203-1.881 4.313-1.881 5.516 0 2.163 3.382 21.136 33.39 21.136 45.385 0 12.171-9.184 22.134-20.97 23.595v6.938h38.465C177.057 124.26 180 112.487 180 100c0-44.183-35.817-80-80-80-44.182 0-80 35.818-80 80 0 12.487 2.943 24.26 8.045 34.791h24.86V88.503z" data-color="1" class="aa6E2ijNPFncolors-0"></path><path d="M130.565 121.596c9.56 0 17.341-7.778 17.341-17.338 0-7.372-10.782-26.643-17.341-37.419-6.553 10.776-17.335 30.05-17.335 37.419 0 9.56 7.775 17.338 17.335 17.338z" data-color="1" class="aa6E2ijNPFncolors-0"></path></g></g>
</svg>
</g><g opacity="1" transform="rotate(0 384.7457 339.6368)">
<svg width="227.3552" height="20.0047" x="384.7457" y="339.6368" version="1.1" preserveAspectRatio="none" viewBox="1.25 -28.8477 332.1484 29.238400000000002">
  <g transform="matrix(1 0 0 1 0 0)" class="aD6z1nYkhcolor"><path id="id-D6z1nYkh15" d="M16.82-7.56L16.82-7.56Q16.82-9.06 15.75-9.90Q14.69-10.74 12.01-11.64Q9.34-12.54 7.64-13.38L7.64-13.38Q2.11-16.09 2.11-20.84L2.11-20.84Q2.11-23.20 3.49-25.01Q4.86-26.82 7.38-27.82Q9.90-28.83 13.05-28.83L13.05-28.83Q16.11-28.83 18.54-27.73Q20.98-26.64 22.32-24.62Q23.67-22.60 23.67-20L23.67-20L16.84-20Q16.84-21.74 15.77-22.70Q14.71-23.65 12.89-23.65L12.89-23.65Q11.05-23.65 9.99-22.84Q8.93-22.03 8.93-20.78L8.93-20.78Q8.93-19.69 10.10-18.80Q11.27-17.91 14.22-16.96Q17.17-16.02 19.06-14.92L19.06-14.92Q23.67-12.27 23.67-7.60L23.67-7.60Q23.67-3.87 20.86-1.74Q18.05 0.39 13.14 0.39L13.14 0.39Q9.69 0.39 6.88-0.85Q4.08-2.09 2.67-4.25Q1.25-6.41 1.25-9.22L1.25-9.22L8.13-9.22Q8.13-6.93 9.31-5.85Q10.49-4.77 13.14-4.77L13.14-4.77Q14.84-4.77 15.83-5.50Q16.82-6.23 16.82-7.56Z M44.82-17.15L44.82-12.05L34.04-12.05L34.04-5.27L46.78-5.27L46.78 0L27.19 0L27.19-28.44L46.82-28.44L46.82-23.14L34.04-23.14L34.04-17.15L44.82-17.15Z M54.96-28.44L60.61-7.73L66.27-28.44L73.93-28.44L64.36 0L56.86 0L47.36-28.44L54.96-28.44Z M93.63-17.15L93.63-12.05L82.85-12.05L82.85-5.27L95.59-5.27L95.59 0L76.00 0L76.00-28.44L95.63-28.44L95.63-23.14L82.85-23.14L82.85-17.15L93.63-17.15Z M122.13-28.44L122.13 0L115.31 0L105.23-17.70L105.23 0L98.38 0L98.38-28.44L105.23-28.44L115.29-10.74L115.29-28.44L122.13-28.44Z M157.58-28.44L157.58-23.14L149.04-23.14L149.04 0L142.19 0L142.19-23.14L133.81-23.14L133.81-28.44L157.58-28.44Z M178.11-17.15L178.11-12.05L167.32-12.05L167.32-5.27L180.06-5.27L180.06 0L160.47 0L160.47-28.44L180.10-28.44L180.10-23.14L167.32-23.14L167.32-17.15L178.11-17.15Z M198.44 0L193.42-10.04L189.71-10.04L189.71 0L182.85 0L182.85-28.44L194.04-28.44Q199.10-28.44 201.95-26.19Q204.80-23.95 204.80-19.84L204.80-19.84Q204.80-16.88 203.60-14.92Q202.40-12.97 199.84-11.76L199.84-11.76L205.78-0.29L205.78 0L198.44 0ZM189.71-23.14L189.71-15.33L194.04-15.33Q196.00-15.33 196.98-16.36Q197.97-17.38 197.97-19.22Q197.97-21.05 196.97-22.10Q195.98-23.14 194.04-23.14L194.04-23.14L189.71-23.14Z M224.53 0L219.51-10.04L215.80-10.04L215.80 0L208.95 0L208.95-28.44L220.14-28.44Q225.20-28.44 228.05-26.19Q230.90-23.95 230.90-19.84L230.90-19.84Q230.90-16.88 229.70-14.92Q228.50-12.97 225.94-11.76L225.94-11.76L231.88-0.29L231.88 0L224.53 0ZM215.80-23.14L215.80-15.33L220.14-15.33Q222.09-15.33 223.08-16.36Q224.06-17.38 224.06-19.22Q224.06-21.05 223.07-22.10Q222.07-23.14 220.14-23.14L220.14-23.14L215.80-23.14Z M252.85 0L251.19-5.31L241.80-5.31L240.16 0L232.83 0L243.26-28.44L249.71-28.44L260.21 0L252.85 0ZM246.48-20.47L243.44-10.61L249.55-10.61L246.48-20.47Z M278.07-9.63L284.88-9.63Q284.75-6.66 283.28-4.38Q281.82-2.11 279.17-0.86Q276.52 0.39 273.13 0.39L273.13 0.39Q267.52 0.39 264.30-3.26Q261.07-6.91 261.07-13.57L261.07-13.57L261.07-14.98Q261.07-19.16 262.53-22.29Q263.98-25.43 266.72-27.14Q269.45-28.85 273.05-28.85L273.05-28.85Q278.22-28.85 281.37-26.12Q284.51-23.40 284.94-18.61L284.94-18.61L278.11-18.61Q278.03-21.21 276.80-22.34Q275.57-23.48 273.05-23.48L273.05-23.48Q270.49-23.48 269.30-21.56Q268.11-19.65 268.05-15.45L268.05-15.45L268.05-13.44Q268.05-8.89 269.19-6.93Q270.33-4.98 273.13-4.98L273.13-4.98Q275.49-4.98 276.74-6.09Q277.99-7.21 278.07-9.63L278.07-9.63Z M305.76-17.15L305.76-12.05L294.98-12.05L294.98-5.27L307.71-5.27L307.71 0L288.13 0L288.13-28.44L307.75-28.44L307.75-23.14L294.98-23.14L294.98-17.15L305.76-17.15Z M325.18-7.56L325.18-7.56Q325.18-9.06 324.11-9.90Q323.05-10.74 320.37-11.64Q317.70-12.54 316.00-13.38L316.00-13.38Q310.47-16.09 310.47-20.84L310.47-20.84Q310.47-23.20 311.85-25.01Q313.22-26.82 315.74-27.82Q318.26-28.83 321.41-28.83L321.41-28.83Q324.47-28.83 326.90-27.73Q329.34-26.64 330.68-24.62Q332.03-22.60 332.03-20L332.03-20L325.20-20Q325.20-21.74 324.13-22.70Q323.07-23.65 321.25-23.65L321.25-23.65Q319.41-23.65 318.35-22.84Q317.29-22.03 317.29-20.78L317.29-20.78Q317.29-19.69 318.46-18.80Q319.63-17.91 322.58-16.96Q325.53-16.02 327.42-14.92L327.42-14.92Q332.03-12.27 332.03-7.60L332.03-7.60Q332.03-3.87 329.22-1.74Q326.41 0.39 321.50 0.39L321.50 0.39Q318.05 0.39 315.24-0.85Q312.44-2.09 311.03-4.25Q309.61-6.41 309.61-9.22L309.61-9.22L316.48-9.22Q316.48-6.93 317.67-5.85Q318.85-4.77 321.50-4.77L321.50-4.77Q323.20-4.77 324.19-5.50Q325.18-6.23 325.18-7.56Z"/></g>
</svg>
</g><g opacity="1" transform="rotate(0 462.6661 375.1262)">
<svg width="71.5144" height="18.7145" x="462.6661" y="375.1262" version="1.1" preserveAspectRatio="none" viewBox="2.0117 -26.3281 133.2227 34.863299999999995">
  <g transform="matrix(1 0 0 1 0 0)" class="aJDPqonIIWcolor"><path id="id-JDPqonIIW8" d="M18.48-11.52L18.48-9.90Q18.48-4.92 16.77-2.27Q15.06 0.39 11.68 0.39L11.68 0.39Q9.10 0.39 7.54-1.70L7.54-1.70L7.54 8.13L2.01 8.13L2.01-21.13L7.13-21.13L7.32-19.20Q8.91-21.52 11.64-21.52L11.64-21.52Q15.02-21.52 16.73-19.06Q18.44-16.60 18.48-11.52L18.48-11.52ZM12.97-9.90L12.97-11.29Q12.97-14.36 12.29-15.63Q11.62-16.89 10.02-16.89L10.02-16.89Q8.32-16.89 7.54-15.47L7.54-15.47L7.54-5.57Q8.28-4.20 10.06-4.20L10.06-4.20Q11.70-4.20 12.33-5.59Q12.97-6.97 12.97-9.90L12.97-9.90Z M32.30-21.27L32.25-15.80L30.41-15.96Q28.14-15.96 27.34-13.96L27.34-13.96L27.34 0L21.80 0L21.80-21.13L27.01-21.13L27.17-18.85Q28.48-21.52 30.78-21.52L30.78-21.52Q31.72-21.52 32.30-21.27L32.30-21.27Z M33.73-9.90L33.73-11.25Q33.73-16.05 36.00-18.79Q38.26-21.52 42.27-21.52L42.27-21.52Q46.31-21.52 48.57-18.79Q50.84-16.05 50.84-11.21L50.84-11.21L50.84-9.86Q50.84-5.04 48.59-2.32Q46.35 0.39 42.30 0.39L42.30 0.39Q38.24 0.39 35.99-2.33Q33.73-5.06 33.73-9.90L33.73-9.90ZM39.28-11.25L39.28-9.86Q39.28-4.20 42.30-4.20L42.30-4.20Q45.10-4.20 45.31-8.93L45.31-8.93L45.33-11.25Q45.33-14.14 44.53-15.54Q43.73-16.93 42.27-16.93L42.27-16.93Q40.86-16.93 40.07-15.54Q39.28-14.14 39.28-11.25L39.28-11.25Z M70.74-11.52L70.74-9.90Q70.74-4.92 69.03-2.27Q67.32 0.39 63.95 0.39L63.95 0.39Q61.37 0.39 59.80-1.70L59.80-1.70L59.80 8.13L54.28 8.13L54.28-21.13L59.39-21.13L59.59-19.20Q61.17-21.52 63.91-21.52L63.91-21.52Q67.29-21.52 68.99-19.06Q70.70-16.60 70.74-11.52L70.74-11.52ZM65.23-9.90L65.23-11.29Q65.23-14.36 64.56-15.63Q63.89-16.89 62.29-16.89L62.29-16.89Q60.59-16.89 59.80-15.47L59.80-15.47L59.80-5.57Q60.55-4.20 62.32-4.20L62.32-4.20Q63.96-4.20 64.60-5.59Q65.23-6.97 65.23-9.90L65.23-9.90Z M82.62 0.39L82.62 0.39Q78.36 0.39 75.98-2.15Q73.59-4.69 73.59-9.41L73.59-9.41L73.59-11.09Q73.59-16.09 75.78-18.81Q77.97-21.52 82.05-21.52L82.05-21.52Q86.04-21.52 88.05-18.97Q90.06-16.43 90.10-11.43L90.10-11.43L90.10-8.71L79.10-8.71Q79.22-6.37 80.14-5.28Q81.05-4.20 82.97-4.20L82.97-4.20Q85.74-4.20 87.60-6.09L87.60-6.09L89.77-2.75Q88.75-1.35 86.82-0.48Q84.88 0.39 82.62 0.39ZM79.14-12.58L79.14-12.58L84.67-12.58L84.67-13.09Q84.63-14.98 84.04-15.96Q83.46-16.93 82.01-16.93Q80.57-16.93 79.91-15.90Q79.26-14.86 79.14-12.58Z M103.71-21.27L103.65-15.80L101.82-15.96Q99.55-15.96 98.75-13.96L98.75-13.96L98.75 0L93.20 0L93.20-21.13L98.42-21.13L98.57-18.85Q99.88-21.52 102.19-21.52L102.19-21.52Q103.13-21.52 103.71-21.27L103.71-21.27Z M108.36-26.33L113.89-26.33L113.89-21.13L116.72-21.13L116.72-16.97L113.89-16.97L113.89-6.48Q113.89-5.23 114.23-4.77Q114.57-4.30 115.55-4.30L115.55-4.30Q116.35-4.30 116.86-4.43L116.86-4.43L116.82-0.14Q115.41 0.39 113.77 0.39L113.77 0.39Q108.42 0.39 108.36-5.74L108.36-5.74L108.36-16.97L105.92-16.97L105.92-21.13L108.36-21.13L108.36-26.33Z M123.98-21.13L126.52-9.20L129.34-21.13L135.23-21.13L128.28 3.16Q126.72 8.54 122.40 8.54L122.40 8.54Q121.41 8.54 120.14 8.16L120.14 8.16L120.14 3.85L120.78 3.87Q122.07 3.87 122.72 3.37Q123.38 2.87 123.71 1.64L123.71 1.64L124.14 0.21L118.05-21.13L123.98-21.13Z"/></g>
</svg>
</g></svg>